<?xml version="1.0" encoding="utf-8"?>
<!-- Generator: Adobe Illustrator 23.0.6, SVG Export Plug-In . SVG Version: 6.00 Build 0)  -->
<svg version="1.1" id="Layer_1" xmlns="http://www.w3.org/2000/svg" xmlns:xlink="http://www.w3.org/1999/xlink" x="0px" y="0px"
	 width="280px" height="280px" viewBox="0 0 280 280" enable-background="new 0 0 280 280" xml:space="preserve">
<g>
	<circle fill="#FFDA59" cx="185.5" cy="24.5" r="17.5"/>
	<line fill="none" stroke="#212121" stroke-width="2" stroke-miterlimit="10" x1="181" y1="11" x2="222" y2="11"/>
	<g>
		<path fill="#212121" d="M214,26c1.1,0,2,0.9,2,2v20c0,1.1-0.9,2-2,2h-37c-1.1,0-2-0.9-2-2V28c0-1.1,0.9-2,2-2H214 M214,24h-37
			c-2.2,0-4,1.8-4,4v20c0,2.2,1.8,4,4,4h37c2.2,0,4-1.8,4-4V28C218,25.8,216.2,24,214,24L214,24z"/>
	</g>
	<path fill="none" stroke="#212121" stroke-width="2" stroke-miterlimit="10" d="M184.5,36.5h-6c-0.6,0-1-0.5-1-1v-5
		c0-0.5,0.4-1,1-1h6c0.6,0,1,0.5,1,1v5C185.5,36,185.1,36.5,184.5,36.5z"/>
	<g>
		<path fill="#212121" d="M220,6c1.1,0,2,0.9,2,2v20c0,1.1-0.9,2-2,2h-2c0-3.3-2.7-6-6-6h-31V8c0-1.1,0.9-2,2-2H220 M220,4h-37
			c-2.2,0-4,1.8-4,4v18h33c2.2,0,4,1.8,4,4v2h4c2.2,0,4-1.8,4-4V8C224,5.8,222.2,4,220,4L220,4z"/>
	</g>
</g>
<g>
	<circle fill="#FFDA59" cx="32.5" cy="25.5" r="17.5"/>
	<path d="M22,41.4v7.1H6c0.2-2.4,0.9-5.4,1.8-7.5c0.8-2.1,2.5-4.9,4.9-8.4c1.9-2.8,3.1-4.6,3.6-5.6c0.7-1.4,1-2.8,1-4.3
		c0-1.5-0.3-2.7-0.8-3.5c-0.5-0.8-1.3-1.2-2.2-1.2c-1.9,0-3,1.8-3.1,5.5l-4.4-0.7C7,19.3,7.8,16.7,9.1,15s3.1-2.5,5.2-2.5
		c2.4,0,4.2,1,5.4,2.9s1.8,4.2,1.8,6.8c0,1.4-0.2,2.8-0.5,4.2c-0.3,1.3-0.8,2.7-1.4,4.1c-0.6,1.4-1.7,3.1-3.2,5.2
		c-1.4,2-2.3,3.3-2.7,3.9c-0.4,0.6-0.6,1.1-0.8,1.7H22z"/>
	<path d="M32,12.5c2.2,0,4,1.3,5.4,4s2.1,7.3,2.1,13.9c0,6.6-0.7,11.3-2.1,13.9c-1.4,2.7-3.2,4-5.4,4c-2.2,0-4-1.3-5.4-4
		c-1.4-2.6-2.1-7.3-2.1-14c0-6.6,0.7-11.2,2.1-13.9C28,13.8,29.8,12.5,32,12.5z M32,18.1c-0.9,0-1.6,0.7-2.1,2.2
		c-0.5,1.4-0.8,4.8-0.8,10.2s0.3,8.8,0.8,10.2c0.5,1.4,1.2,2.1,2.1,2.1c0.9,0,1.6-0.7,2.1-2.2s0.8-4.8,0.8-10.2
		c0-5.4-0.3-8.8-0.8-10.2C33.6,18.8,32.9,18.1,32,18.1z"/>
</g>
<g>
	<circle fill="#FFDA59" cx="92.5" cy="24.5" r="17.5"/>
	<g>
		<path fill="none" stroke="#000000" stroke-width="2" stroke-miterlimit="10" d="M90,52H62c-2.2,0-4-1.8-4-4V8c0-2.2,1.8-4,4-4
			c0,0,24,0,25,0s7,6,7,7s0,37,0,37C94,50.2,92.2,52,90,52z"/>
		
			<line fill="none" stroke="#000000" stroke-width="2" stroke-linecap="round" stroke-miterlimit="10" x1="63" y1="20" x2="85" y2="20"/>
		
			<line fill="none" stroke="#000000" stroke-width="2" stroke-linecap="round" stroke-miterlimit="10" x1="63" y1="28" x2="78" y2="28"/>
		
			<line fill="none" stroke="#000000" stroke-width="2" stroke-linecap="round" stroke-miterlimit="10" x1="63" y1="36" x2="78" y2="36"/>
		
			<line fill="none" stroke="#000000" stroke-width="2" stroke-linecap="round" stroke-miterlimit="10" x1="63" y1="43" x2="72" y2="43"/>
		<path fill="none" stroke="#000000" stroke-width="2" stroke-miterlimit="10" d="M87,13h5c1.1,0,2,0,2-2s-6-7-7-7s-2,0.9-2,2v5
			C85,12.1,85.9,13,87,13z"/>
	</g>
	<g>
		<path fill="#FFDA59" stroke="#000000" stroke-width="2" stroke-miterlimit="10" d="M83.9,39.6c-1.8-1.8,2.2-7.1,3.5-8.5l12.7-12.7
			c1.4-1.4,3.6-1.4,4.9,0l0,0c1.4,1.4,1.4,3.6,0,4.9L92.4,36.1C91,37.4,85.7,41.4,83.9,39.6z"/>
		<path fill="#FFDA59" stroke="#000000" stroke-width="2" stroke-miterlimit="10" d="M86.2,32.6c-1.6,2.2-3.6,5.6-2.3,7
			c1.4,1.4,4.8-0.6,7-2.3c0.7-1.3,0.5-3-0.6-4.1C89.2,32.1,87.5,31.9,86.2,32.6z"/>
		<circle fill="#FFDA59" stroke="#000000" stroke-width="2" stroke-miterlimit="10" cx="102.6" cy="20.9" r="3.5"/>
	</g>
</g>
<g>
	<circle fill="#FFDA59" cx="131.5" cy="20" r="17.5"/>
	<g>
		<path d="M144,3.3c4.8,4.5,10.4,6.8,16.5,6.8c1.1,0,2.3-0.1,3.5-0.2V38c-4.4,8.8-11,13.9-20,15.4c-9-1.5-15.6-6.6-20-15.4V9.9
			c1.2,0.2,2.4,0.2,3.5,0.2C133.6,10.1,139.2,7.8,144,3.3 M144,0.5c-4.6,4.9-10,7.6-16.5,7.6c-1.8,0-3.6-0.2-5.5-0.6v31
			c5,10.3,12.6,15.5,22,17c9.4-1.5,17-6.7,22-17v-31c-1.9,0.4-3.8,0.6-5.5,0.6C154,8.1,148.6,5.4,144,0.5L144,0.5z"/>
	</g>
	<g>
		<path d="M152,32.5v10h-17v-10H152 M152,30.5h-17c-1.1,0-2,0.9-2,2v10c0,1.1,0.9,2,2,2h17c1.1,0,2-0.9,2-2v-10
			C154,31.4,153.1,30.5,152,30.5L152,30.5z"/>
	</g>
	<path fill="none" stroke="#000000" stroke-width="2" stroke-miterlimit="10" d="M150,25.5v-1c0-3.3-2.7-6-6-6h-1c-3.3,0-6,2.7-6,6
		v6"/>
	<g>
		<path d="M143.8,37c0.1,0.1,0.2,0.4,0.2,0.5s-0.1,0.4-0.2,0.5h-0.6c-0.1-0.1-0.2-0.4-0.2-0.5s0.1-0.4,0.2-0.5H143.8 M144,36h-1
			c-0.6,0-1,1-1,1.5s0.4,1.5,1,1.5h1c0.6,0,1-1,1-1.5S144.6,36,144,36L144,36z"/>
	</g>
</g>
</svg>
