<?xml version="1.0" encoding="utf-8"?>
<svg version="1.1" id="Layer_1" xmlns="http://www.w3.org/2000/svg" xmlns:xlink="http://www.w3.org/1999/xlink" x="0px" y="0px"
	 width="80px" height="80px" viewBox="0 0 80 80" enable-background="new 0 0 80 80" xml:space="preserve">
<g>
	<path fill="#EE3023" d="M32,8c0,4.4-3.6,8-8,8s-8-3.6-8-8s3.6-8,8-8S32,3.6,32,8z"/>
	<path fill="#FFFFFF" d="M24.1,12.5c-2.2,0-4.5-1.9-4.5-4.9c0-2,1.1-3.9,2.4-5s3.2-1.8,4.8-1.8c0.2,0,0.4,0,0.6,0.1
		C26,1.1,24.8,2.4,24.8,4c0,0.1,0,0.1,0,0.1c2.4,0.6,3.5,2.1,3.5,4.1C28.4,10.2,26.8,12.5,24.1,12.5"/>
</g>
<g>
	<path fill-rule="evenodd" clip-rule="evenodd" fill="#00A0FF" d="M40,0.3c0.6,0,1,0.5,1,1v3.8c0,0.6-0.5,1-1,1s-1-0.5-1-1V1.3
		C39,0.8,39.4,0.3,40,0.3z"/>
	<path fill-rule="evenodd" clip-rule="evenodd" fill="#00A0FF" d="M47.9,6.1c0.2,0.5-0.1,1.1-0.7,1.3l-3.6,1.2
		c-0.5,0.2-1.1-0.1-1.3-0.7c-0.1-0.6,0.2-1.1,0.7-1.3l3.6-1.2C47.2,5.2,47.8,5.5,47.9,6.1z"/>
	<path fill-rule="evenodd" clip-rule="evenodd" fill="#00A0FF" d="M44.9,15.4c-0.5,0.3-1.1,0.2-1.5-0.2l-2.2-3.1
		c-0.3-0.5-0.2-1.1,0.2-1.5c0.5-0.3,1.1-0.2,1.5,0.2l2.2,3.1C45.5,14.4,45.4,15.1,44.9,15.4z"/>
	<path fill-rule="evenodd" clip-rule="evenodd" fill="#00A0FF" d="M35.1,15.4c-0.5-0.3-0.6-1-0.2-1.5l2.2-3.1c0.3-0.5,1-0.6,1.5-0.2
		c0.5,0.3,0.6,1,0.2,1.5l-2.2,3.1C36.2,15.7,35.6,15.8,35.1,15.4z"/>
	<path fill-rule="evenodd" clip-rule="evenodd" fill="#00A0FF" d="M32.1,6.1c0.2-0.5,0.8-0.8,1.3-0.7L37,6.6
		c0.5,0.2,0.8,0.8,0.7,1.3c-0.2,0.5-0.8,0.8-1.3,0.7l-3.6-1.2C32.2,7.2,31.9,6.6,32.1,6.1z"/>
</g>
<path fill="#FEC601" d="M11,16c-0.8,0-1.7-0.2-2.6-0.6c-1.8-0.7-3.5-2-4.9-3.6C0.8,8.5-0.5,3.5,2,1.5l1.2-1C3.6,0.1,4,0,4.5,0
	s0.9,0.3,1.2,0.6l1.8,2.2C8.1,3.6,8,4.7,7.3,5.3l-1,0.8c0,0.2,0.2,0.9,1.3,2.2s1.8,1.7,2,1.7l1-0.8c0.8-0.6,1.9-0.5,2.5,0.2l1.8,2.2
	c0.3,0.4,0.5,0.8,0.4,1.3c0,0.5-0.3,0.9-0.6,1.2l-1.2,1C12.8,15.7,12,16,11,16z M4.3,1.6L4.3,1.6L3,2.7C1.5,4,2.4,7.9,4.8,10.8
	C6,12.2,7.6,13.4,9,14c0.8,0.3,2.4,0.8,3.4,0l1.2-1c0.1,0,0.1-0.1,0.1-0.1v-0.1l-1.8-2.2c-0.1-0.1-0.2-0.1-0.3,0l-1.1,0.9
	c-0.4,0.4-1.7,0.9-4.1-2S4.7,5.4,5.2,5.1l1.1-0.9c0.1-0.1,0.1-0.2,0-0.3L4.5,1.7C4.5,1.6,4.4,1.6,4.3,1.6z"/>
<g>
	<circle fill="#FFCB08" cx="56" cy="8" r="8"/>
	<path fill="#0C4EA3" d="M60.5,5.4c-1,0-1.8,0.8-1.8,1.8v0.1c-0.9,0.2-2.4,0.8-4.3,2.2c-1.9,1.4-3.1,3.4-3.7,4.4
		c0.8,0.8,1.8,1.3,2.9,1.7c0.2-1.2,0.8-3.2,2.3-4.8c1.1-1.2,2.4-2,3.2-2.4C59.5,8.8,59.8,9,60.5,9c1,0,1.8-0.8,1.8-1.8
		S61.5,5.4,60.5,5.4z M53.3,5c0.3,0.4,0.8,0.6,1.4,0.6c1,0,1.8-0.8,1.8-1.8S55.8,2,54.8,2S53,2.8,53,3.8c0,0.1,0,0.2,0,0.3
		c-0.3,0.1-1.3,0.4-2.9,1.7c-0.8,0.6-1.5,1.5-2.1,2.3c0,1.6,0.5,3.1,1.4,4.4c0.1-1.2,0.5-3.2,1.6-4.8C51.6,6.6,52.8,5.6,53.3,5z"/>
</g>
<g>
	
		<rect x="-2.4" y="23.1" transform="matrix(0.7071 -0.7071 0.7071 0.7071 -14.6272 12.6862)" fill="#373742" width="20.8" height="1.8"/>
	
		<rect x="7.1" y="13.6" transform="matrix(0.7071 -0.7071 0.7071 0.7071 -14.6272 12.6863)" fill="#373742" width="1.8" height="20.8"/>
</g>
<g>
	<rect x="16" y="17" fill="#373742" width="16" height="2"/>
	<rect x="16" y="23.1" fill="#373742" width="16" height="1.9"/>
	<rect x="16" y="29" fill="#373742" width="16" height="2"/>
</g>
<g>
	<rect x="32" y="16.5" fill="#FFFFFF" width="16" height="1.9"/>
	<rect x="32" y="23.1" fill="#FFFFFF" width="16" height="1.9"/>
	<rect x="32" y="29.6" fill="#FFFFFF" width="16" height="1.9"/>
</g>
<g>
	<path fill="#373742" d="M8,48c-4.4,0-8-3.6-8-8s3.6-8,8-8s8,3.6,8,8S12.4,48,8,48z M8,33.3c-3.7,0-6.7,3-6.7,6.7s3,6.7,6.7,6.7
		s6.7-3,6.7-6.7S11.7,33.3,8,33.3z"/>
	<path fill="#373742" d="M7.2,36h1.6v8H7.2V36z"/>
	<path fill="#373742" d="M12,39.2v1.6H4v-1.6H12z"/>
</g>
<path fill="none" stroke="#373742" stroke-miterlimit="10" d="M40,79.5c-4.1,0-7.5-3.4-7.5-7.5s3.4-7.5,7.5-7.5s7.5,3.4,7.5,7.5
	S44.1,79.5,40,79.5z"/>
<g>
	<path fill="none" stroke="#373742" stroke-miterlimit="10" d="M50.1,66.9h11.7c0.4,0,0.6,0.4,0.4,0.8l-5.8,9.3
		c-0.2,0.3-0.7,0.3-0.8,0l-5.8-9.3C49.5,67.3,49.7,66.9,50.1,66.9z"/>
</g>
<g>
	<path fill="#FFFFFF" d="M50.1,50.9h11.7c0.4,0,0.6,0.4,0.4,0.8l-5.8,9.3c-0.2,0.3-0.7,0.3-0.8,0l-5.8-9.3
		C49.5,51.3,49.7,50.9,50.1,50.9z"/>
</g>
<g>
	<path fill="#373742" d="M23,34h2v12h-2V34z"/>
	<path fill="#373742" d="M30,39v2H18v-2H30z"/>
</g>
<path fill="#373742" d="M46,39v2H34v-2H46z"/>
<g>
	<path fill="#DFE2EB" d="M8,49c3.9,0,7,3.1,7,7s-3.1,7-7,7s-7-3.1-7-7S4.1,49,8,49 M8,48c-4.4,0-8,3.6-8,8s3.6,8,8,8s8-3.6,8-8
		S12.4,48,8,48L8,48z"/>
	
		<rect x="2.1" y="55.5" transform="matrix(0.7071 -0.7071 0.7071 0.7071 -37.2569 22.0184)" fill="#373742" width="11.7" height="1"/>
	
		<rect x="7.5" y="50.1" transform="matrix(0.7071 -0.7071 0.7071 0.7071 -37.214 22.0563)" fill="#373742" width="1" height="11.7"/>
</g>
<path fill="#373742" d="M63.8,29.7c-0.1-0.3-0.4-0.6-0.7-0.5s-0.6,0.4-0.5,0.7c0.1,0.2,0,0.4-0.2,0.6c-0.1,0.1-0.2,0.2-0.5,0.2H49.8
	c-0.2,0-0.4-0.2-0.5-0.2c-0.2-0.2-0.2-0.3-0.2-0.6c0.6-3.1,3.4-5.4,6.6-5.4c0.1,0,0.1,0,0.2,0c0.1,0,0.1,0,0.2,0
	c2.2,0.1,4.3,1.2,5.5,3c0.2,0.3,0.6,0.4,0.9,0.2c0.3-0.2,0.4-0.6,0.2-0.9c-1-1.5-2.5-2.6-4.2-3.2c1-0.8,1.7-2,1.7-3.4
	C60.3,18,58.4,16,56,16c-2.3,0-4.2,1.9-4.2,4.2c0,1.4,0.6,2.6,1.7,3.4c-1,0.3-1.8,0.8-2.6,1.4c-1.4,1.2-2.4,2.8-2.8,4.6
	c-0.1,0.6,0,1.1,0.4,1.6c0.4,0.4,1,0.6,1.5,0.6h12.2c0.6,0,1.1-0.2,1.4-0.7C63.8,30.9,64,30.2,63.8,29.7z M52.9,20.2
	c0-1.7,1.4-3,3-3c1.7,0,3,1.4,3,3s-1.3,2.9-2.9,3c-0.1,0-0.1,0-0.2,0c-0.1,0-0.1,0-0.2,0C54.2,23.2,52.9,21.8,52.9,20.2z"/>
<path fill="#373742" d="M63.8,45.8c-0.1-0.3-0.4-0.6-0.7-0.5s-0.6,0.4-0.5,0.7c0.1,0.2,0,0.4-0.2,0.6c-0.1,0.1-0.2,0.2-0.5,0.2H49.8
	c-0.2,0-0.4-0.2-0.5-0.2c-0.2-0.2-0.2-0.3-0.2-0.6c0.6-3.1,3.4-5.4,6.6-5.4c0.1,0,0.1,0,0.2,0c0.1,0,0.1,0,0.2,0
	c2.2,0.1,4.3,1.2,5.5,3c0.2,0.3,0.6,0.4,0.9,0.2c0.3-0.2,0.4-0.6,0.2-0.9c-1-1.5-2.5-2.6-4.2-3.2c1-0.8,1.7-2,1.7-3.4
	c0.1-2.2-1.8-4.2-4.2-4.2c-2.3,0-4.2,1.9-4.2,4.2c0,1.4,0.6,2.6,1.7,3.4c-1,0.3-1.8,0.8-2.6,1.4c-1.4,1.2-2.4,2.8-2.8,4.6
	c-0.1,0.6,0,1.1,0.4,1.6c0.4,0.4,1,0.6,1.5,0.6h12.2c0.6,0,1.1-0.2,1.4-0.7C63.8,47,64,46.3,63.8,45.8z M52.9,36.3c0-1.7,1.4-3,3-3
	c1.7,0,3,1.4,3,3s-1.3,2.9-2.9,3c-0.1,0-0.1,0-0.2,0c-0.1,0-0.1,0-0.2,0C54.2,39.3,52.9,37.9,52.9,36.3z"/>
<path fill="#FFFFFF" d="M79.8,29.7c-0.1-0.3-0.4-0.6-0.7-0.5c-0.3,0.1-0.6,0.4-0.5,0.7c0.1,0.2,0,0.4-0.2,0.6
	c-0.1,0.1-0.2,0.2-0.5,0.2H65.8c-0.2,0-0.4-0.2-0.5-0.2c-0.2-0.2-0.2-0.3-0.2-0.6c0.6-3.1,3.4-5.4,6.6-5.4c0.1,0,0.1,0,0.2,0
	s0.1,0,0.2,0c2.2,0.1,4.3,1.2,5.5,3c0.2,0.3,0.6,0.4,0.9,0.2c0.3-0.2,0.4-0.6,0.2-0.9c-1-1.5-2.5-2.6-4.2-3.2c1-0.8,1.7-2,1.7-3.4
	C76.3,18,74.4,16,72,16c-2.3,0-4.2,1.9-4.2,4.2c0,1.4,0.6,2.6,1.7,3.4c-1,0.3-1.8,0.8-2.6,1.4c-1.4,1.2-2.4,2.8-2.8,4.6
	c-0.1,0.6,0,1.1,0.4,1.6c0.4,0.4,1,0.6,1.5,0.6h12.2c0.6,0,1.1-0.2,1.4-0.7C79.8,30.9,80,30.2,79.8,29.7z M68.9,20.2
	c0-1.7,1.4-3,3-3c1.7,0,3,1.4,3,3s-1.3,2.9-2.9,3c-0.1,0-0.1,0-0.2,0s-0.1,0-0.2,0C70.2,23.2,68.9,21.8,68.9,20.2z"/>
<path fill="#73737B" d="M28.6,50.9h-0.9V50c0-1.1-0.9-2-2-2h-3.4c-1.1,0-2,0.9-2,2v0.9h-0.9c-1.1,0-2,0.9-2,2v0.6c0,1,0.7,1.8,1.6,2
	V62c0,1.1,0.9,2,2,2h5.9c1.1,0,2-0.9,2-2v-6.6c0.9-0.2,1.6-1,1.6-2v-0.6C30.6,51.8,29.7,50.9,28.6,50.9z M22,50
	c0-0.2,0.1-0.3,0.3-0.3h3.4c0.2,0,0.3,0.1,0.3,0.3v0.9h-4L22,50z M27.2,62c0,0.2-0.1,0.3-0.3,0.3H21c-0.2,0-0.3-0.1-0.3-0.3v-6.6
	h6.4L27.2,62L27.2,62z M28.7,52.6c0.1,0,0.2,0.1,0.2,0.3v0.6c0,0.2-0.1,0.3-0.2,0.3l-9.5,0c-0.1,0-0.1-0.1-0.1-0.3v-0.6
	c0-0.2,0-0.3,0.1-0.3"/>
<g>
	<g>
		<path fill="#373742" d="M14,66.5c0.6,0,1,0.4,1,1v8.9c0,0.6-0.4,1-1,1H2c-0.6,0-1-0.4-1-1v-8.9c0-0.6,0.4-1,1-1H14 M14,65.5H2
			c-1.1,0-2,0.9-2,2v8.9c0,1.1,0.9,2,2,2h12c1.1,0,2-0.9,2-2v-8.9C16,66.4,15.1,65.5,14,65.5L14,65.5z"/>
	</g>
	<polyline fill="none" stroke="#373742" stroke-miterlimit="10" points="0.3,68 8,73.5 15.7,68 	"/>
	<polyline fill="none" stroke="#373742" stroke-miterlimit="10" points="0.3,76 5.9,72 8,73.5 10.1,72 15.7,76 	"/>
</g>
<g>
	<g>
		<path fill="#373742" d="M20.6,65c0,0,0.2,0,0.4,0.3l1.7,2.1c0.3,0.4,0.3,0.9,0,1.1l-1,0.8l-0.4,0.3v0.5c0,0.7,0.5,1.7,1.5,2.8
			c1.1,1.4,2,2.1,2.7,2.1h0.4l0.3-0.2l0.9-0.8c0.2-0.2,0.4-0.2,0.5-0.2c0.1,0,0.3,0,0.5,0.2l1.7,2.2c0.2,0.3,0.2,0.4,0.2,0.5l0,0.1
			v0.1c0,0.1-0.1,0.3-0.3,0.5l-1.1,1c-0.5,0.4-1,0.6-1.7,0.6c-0.6,0-1.4-0.2-2.1-0.5c-1.5-0.6-3-1.8-4.3-3.3
			c-2.3-2.9-3.5-7.4-1.6-8.9l1.2-1l0,0l0,0C20.2,65,20.3,65,20.6,65 M20.6,64c-0.5,0-0.9,0.1-1.3,0.5l-1.2,1c-2.4,2-1.2,7,1.4,10.3
			c1.3,1.6,3,2.9,4.7,3.6c0.9,0.4,1.7,0.6,2.5,0.6c1,0,1.7-0.3,2.4-0.9l1.2-1c0.3-0.3,0.6-0.7,0.6-1.2c0.1-0.5-0.1-0.9-0.4-1.3
			l-1.7-2.2c-0.3-0.4-0.8-0.6-1.3-0.6c-0.4,0-0.8,0.1-1.1,0.4l-1,0.8c-0.2,0-0.9-0.4-1.9-1.7c-1.1-1.3-1.3-2-1.3-2.2l1-0.8
			c0.7-0.6,0.8-1.7,0.2-2.5l-1.7-2.2C21.5,64.3,21.1,64,20.6,64L20.6,64z"/>
	</g>
</g>
<polyline fill="none" stroke="#373742" stroke-linecap="round" stroke-miterlimit="10" points="37.1,74.9 40,72 40,67 "/>
<polyline fill="none" stroke="#373742" stroke-linecap="round" stroke-miterlimit="10" points="33.5,55.5 38.5,60.5 46.5,52.5 "/>
<path fill="#373742" d="M70,66c1.1,0,2,0.9,2,2s-0.9,2-2,2s-2-0.9-2-2S68.9,66,70,66 M70,65c-1.7,0-3,1.3-3,3s1.3,3,3,3s3-1.3,3-3
	S71.7,65,70,65L70,65z"/>
<path fill="none" stroke="#373742" stroke-miterlimit="10" d="M65,79v-2.9c0-2.5,1.8-3.1,4-3.1h3c2.2,0,4,0.5,4,3v3"/>
<polyline fill="none" stroke="#373742" stroke-miterlimit="10" points="75,71 77,72 79,69 "/>
</svg>
