<?xml version="1.0" encoding="utf-8"?>
<svg version="1.1" id="Layer_1" xmlns="http://www.w3.org/2000/svg" xmlns:xlink="http://www.w3.org/1999/xlink" x="0px" y="0px"
	 width="280px" height="280px" viewBox="0 0 280 280" enable-background="new 0 0 280 280" xml:space="preserve">
<g>
	<circle fill="#FFDA59" cx="185.5" cy="24.5" r="17.5"/>
	<line fill="none" stroke="#212121" stroke-width="2" stroke-miterlimit="10" x1="181" y1="11" x2="222" y2="11"/>
	<g>
		<path fill="#212121" d="M214,26c1.1,0,2,0.9,2,2v20c0,1.1-0.9,2-2,2h-37c-1.1,0-2-0.9-2-2V28c0-1.1,0.9-2,2-2H214 M214,24h-37
			c-2.2,0-4,1.8-4,4v20c0,2.2,1.8,4,4,4h37c2.2,0,4-1.8,4-4V28C218,25.8,216.2,24,214,24L214,24z"/>
	</g>
	<path fill="none" stroke="#212121" stroke-width="2" stroke-miterlimit="10" d="M184.5,36.5h-6c-0.6,0-1-0.5-1-1v-5
		c0-0.5,0.4-1,1-1h6c0.6,0,1,0.5,1,1v5C185.5,36,185.1,36.5,184.5,36.5z"/>
	<g>
		<path fill="#212121" d="M220,6c1.1,0,2,0.9,2,2v20c0,1.1-0.9,2-2,2h-2c0-3.3-2.7-6-6-6h-31V8c0-1.1,0.9-2,2-2H220 M220,4h-37
			c-2.2,0-4,1.8-4,4v18h33c2.2,0,4,1.8,4,4v2h4c2.2,0,4-1.8,4-4V8C224,5.8,222.2,4,220,4L220,4z"/>
	</g>
</g>
<g>
	<circle fill="#FFDA59" cx="32.5" cy="25.5" r="17.5"/>
	<path d="M22,41.4v7.1H6c0.2-2.4,0.9-5.4,1.8-7.5c0.8-2.1,2.5-4.9,4.9-8.4c1.9-2.8,3.1-4.6,3.6-5.6c0.7-1.4,1-2.8,1-4.3
		c0-1.5-0.3-2.7-0.8-3.5c-0.5-0.8-1.3-1.2-2.2-1.2c-1.9,0-3,1.8-3.1,5.5l-4.4-0.7C7,19.3,7.8,16.7,9.1,15s3.1-2.5,5.2-2.5
		c2.4,0,4.2,1,5.4,2.9s1.8,4.2,1.8,6.8c0,1.4-0.2,2.8-0.5,4.2c-0.3,1.3-0.8,2.7-1.4,4.1c-0.6,1.4-1.7,3.1-3.2,5.2
		c-1.4,2-2.3,3.3-2.7,3.9c-0.4,0.6-0.6,1.1-0.8,1.7H22z"/>
	<path d="M32,12.5c2.2,0,4,1.3,5.4,4s2.1,7.3,2.1,13.9c0,6.6-0.7,11.3-2.1,13.9c-1.4,2.7-3.2,4-5.4,4c-2.2,0-4-1.3-5.4-4
		c-1.4-2.6-2.1-7.3-2.1-14c0-6.6,0.7-11.2,2.1-13.9C28,13.8,29.8,12.5,32,12.5z M32,18.1c-0.9,0-1.6,0.7-2.1,2.2
		c-0.5,1.4-0.8,4.8-0.8,10.2s0.3,8.8,0.8,10.2c0.5,1.4,1.2,2.1,2.1,2.1c0.9,0,1.6-0.7,2.1-2.2s0.8-4.8,0.8-10.2
		c0-5.4-0.3-8.8-0.8-10.2C33.6,18.8,32.9,18.1,32,18.1z"/>
</g>
<g>
	<circle fill="#FFDA59" cx="92.5" cy="24.5" r="17.5"/>
	<g>
		<path fill="none" stroke="#000000" stroke-width="2" stroke-miterlimit="10" d="M90,52H62c-2.2,0-4-1.8-4-4V8c0-2.2,1.8-4,4-4
			c0,0,24,0,25,0s7,6,7,7s0,37,0,37C94,50.2,92.2,52,90,52z"/>
		
			<line fill="none" stroke="#000000" stroke-width="2" stroke-linecap="round" stroke-miterlimit="10" x1="63" y1="20" x2="85" y2="20"/>
		
			<line fill="none" stroke="#000000" stroke-width="2" stroke-linecap="round" stroke-miterlimit="10" x1="63" y1="28" x2="78" y2="28"/>
		
			<line fill="none" stroke="#000000" stroke-width="2" stroke-linecap="round" stroke-miterlimit="10" x1="63" y1="36" x2="78" y2="36"/>
		
			<line fill="none" stroke="#000000" stroke-width="2" stroke-linecap="round" stroke-miterlimit="10" x1="63" y1="43" x2="72" y2="43"/>
		<path fill="none" stroke="#000000" stroke-width="2" stroke-miterlimit="10" d="M87,13h5c1.1,0,2,0,2-2s-6-7-7-7s-2,0.9-2,2v5
			C85,12.1,85.9,13,87,13z"/>
	</g>
	<g>
		<path fill="#FFDA59" stroke="#000000" stroke-width="2" stroke-miterlimit="10" d="M83.9,39.6c-1.8-1.8,2.2-7.1,3.5-8.5l12.7-12.7
			c1.4-1.4,3.6-1.4,4.9,0l0,0c1.4,1.4,1.4,3.6,0,4.9L92.4,36.1C91,37.4,85.7,41.4,83.9,39.6z"/>
		<path fill="#FFDA59" stroke="#000000" stroke-width="2" stroke-miterlimit="10" d="M86.2,32.6c-1.6,2.2-3.6,5.6-2.3,7
			c1.4,1.4,4.8-0.6,7-2.3c0.7-1.3,0.5-3-0.6-4.1C89.2,32.1,87.5,31.9,86.2,32.6z"/>
		<circle fill="#FFDA59" stroke="#000000" stroke-width="2" stroke-miterlimit="10" cx="102.6" cy="20.9" r="3.5"/>
	</g>
</g>
<g>
	<circle fill="#FFDA59" cx="131.5" cy="20" r="17.5"/>
	<g>
		<path d="M144,3.3c4.8,4.5,10.4,6.8,16.5,6.8c1.1,0,2.3-0.1,3.5-0.2V38c-4.4,8.8-11,13.9-20,15.4c-9-1.5-15.6-6.6-20-15.4V9.9
			c1.2,0.2,2.4,0.2,3.5,0.2C133.6,10.1,139.2,7.8,144,3.3 M144,0.5c-4.6,4.9-10,7.6-16.5,7.6c-1.8,0-3.6-0.2-5.5-0.6v31
			c5,10.3,12.6,15.5,22,17c9.4-1.5,17-6.7,22-17v-31c-1.9,0.4-3.8,0.6-5.5,0.6C154,8.1,148.6,5.4,144,0.5L144,0.5z"/>
	</g>
	<g>
		<path d="M152,32.5v10h-17v-10H152 M152,30.5h-17c-1.1,0-2,0.9-2,2v10c0,1.1,0.9,2,2,2h17c1.1,0,2-0.9,2-2v-10
			C154,31.4,153.1,30.5,152,30.5L152,30.5z"/>
	</g>
	<path fill="none" stroke="#000000" stroke-width="2" stroke-miterlimit="10" d="M150,25.5v-1c0-3.3-2.7-6-6-6h-1c-3.3,0-6,2.7-6,6
		v6"/>
	<g>
		<path d="M143.8,37c0.1,0.1,0.2,0.4,0.2,0.5s-0.1,0.4-0.2,0.5h-0.6c-0.1-0.1-0.2-0.4-0.2-0.5s0.1-0.4,0.2-0.5H143.8 M144,36h-1
			c-0.6,0-1,1-1,1.5s0.4,1.5,1,1.5h1c0.6,0,1-1,1-1.5S144.6,36,144,36L144,36z"/>
	</g>
</g>
<g>
	<g>
		<path fill="#212121" d="M275,9c1.1,0,2,0.9,2,2v34c0,1.1-0.9,2-2,2h-44c-1.1,0-2-0.9-2-2V11c0-1.1,0.9-2,2-2H275 M275,7h-44
			c-2.2,0-4,1.8-4,4v34c0,2.2,1.8,4,4,4h44c2.2,0,4-1.8,4-4V11C279,8.8,277.2,7,275,7L275,7z"/>
	</g>
	<circle fill="#FFDA59" cx="253" cy="28" r="18"/>
	<polyline fill="none" stroke="#212121" stroke-width="2" stroke-miterlimit="10" points="228,15 253,33 278,15 	"/>
	<polyline fill="none" stroke="#212121" stroke-width="2" stroke-miterlimit="10" points="228,41 246.1,28 253,33 259.9,28 278,41 	
		"/>
</g>
<g>
	<circle fill="#FFDA59" cx="31" cy="86" r="17"/>
	<g>
		<path d="M14.2,69c0.3,0,0.8,0.3,1.2,0.7l4,5.1c0.7,1,0.7,2.5-0.2,3.2l-2.3,1.9l-0.7,0.6v0.9c0,1.5,1.2,3.8,3.4,6.5
			c1.8,2.2,4.3,4.8,6.1,4.8h0.7l0.6-0.5l2.3-1.9c0.4-0.3,0.9-0.5,1.4-0.5c0.6,0,1.1,0.2,1.5,0.6l4.1,5.2c0.6,0.8,0.6,1.1,0.5,1.5
			l0,0.2v0.2c0,0.4-0.2,0.9-0.8,1.4l-2.7,2.3c-1.3,1.1-2.6,1.6-4.4,1.6c-1.6,0-3.4-0.4-5.1-1.2l0,0l0,0c-3.7-1.5-7.3-4.2-10.4-8
			c-5.6-7.1-8.3-17.8-3.7-21.7l2.7-2.4l0.1-0.1l0.1-0.1C13.1,69.1,13.4,69,14.2,69 M14.2,67c-1.1,0-2.1,0.2-3,1.2l-2.7,2.4
			C2.8,75.3,5.7,87.2,11.9,95c3.2,3.8,7.1,6.9,11.2,8.5c2.1,1,4.1,1.4,6,1.4c2.3,0,4.1-0.7,5.7-2.1l2.7-2.4c0.7-0.7,1.4-1.7,1.4-2.9
			c0.2-1.2-0.2-2.1-0.9-3.1l-4.1-5.2c-0.8-0.9-1.9-1.4-3-1.4c-0.9,0-1.9,0.3-2.7,0.9l-2.3,1.9c-0.5,0-2.1-0.9-4.6-4
			c-2.5-3.1-3-4.8-3-5.2l2.3-1.9c1.6-1.4,1.8-4,0.5-5.9L17,68.4C16.3,67.7,15.4,67,14.2,67L14.2,67z"/>
	</g>
	<path fill="none" stroke="#000000" stroke-width="2" stroke-miterlimit="10" d="M50.8,89.3c-1.3-12.5-10.5-22.6-22.4-25.5"/>
	<path fill="none" stroke="#000000" stroke-width="2" stroke-miterlimit="10" d="M41.8,90.1c-1-8.6-7.4-15.6-15.7-17.6"/>
</g>
<g>
	<circle fill="#FFDA59" cx="96.3" cy="82.6" r="14.7"/>
	<path fill="none" stroke="#000000" stroke-width="2" stroke-miterlimit="10" d="M74.3,99.4c0,0,1-3.1,4.2-3.1s7.3,0,7.3,0
		s2.1-1,4.2-3.1c2.1-2.1,9.4-8.4,9.4-8.4c3.7-3.7-0.5-7.9-4.2-4.2l-7.9,7.9H79"/>
	<path fill="none" stroke="#000000" stroke-width="2" stroke-miterlimit="10" d="M66.4,91.5l7.3-6.3c0,0,2.1-2.1,4.2-2.1
		c3.1,0,7.3,0,7.3,0c5.2,0,5.2,5.2,0,5.2"/>
	<path fill="none" stroke="#000000" stroke-width="2" stroke-miterlimit="10" d="M73.7,84.1c-2.2-2.3-3.1-5.5-3.1-8.9
		c0-7.2,5.9-13.1,13.1-13.1c7.2,0,13.1,5.9,13.1,13.1c0,1.6-0.5,3.3-1,4.7"/>
	
		<rect x="62.3" y="90.4" transform="matrix(0.7071 -0.7071 0.7071 0.7071 -49.956 75.7945)" fill="none" stroke="#000000" stroke-width="2" stroke-miterlimit="10" width="8.5" height="15.6"/>
</g>
<g>
	<circle fill="#FFDA59" cx="153.3" cy="80.9" r="14.7"/>
	<path fill="none" stroke="#000000" stroke-width="2" stroke-miterlimit="10" d="M117,102v-2c0-2.2,1.8-4,4-4h32c2.2,0,4,1.8,4,4v2
		H117z"/>
	<rect x="120" y="78" fill="none" stroke="#000000" stroke-width="2" stroke-miterlimit="10" width="5" height="18"/>
	<rect x="149" y="78" fill="none" stroke="#000000" stroke-width="2" stroke-miterlimit="10" width="5" height="18"/>
	<rect x="134" y="78" fill="none" stroke="#000000" stroke-width="2" stroke-miterlimit="10" width="5" height="18"/>
	<polygon fill="none" stroke="#000000" stroke-width="2" stroke-miterlimit="10" points="157,78 117,78 117,73.1 137,62 157,73.1 	
		"/>
</g>
<g>
	<circle fill="#FFDA59" cx="209.3" cy="81.9" r="14.7"/>
	<circle fill="none" stroke="#000000" stroke-width="2" stroke-miterlimit="10" cx="195.5" cy="81.5" r="21.5"/>
	<circle fill="none" stroke="#000000" stroke-width="2" stroke-miterlimit="10" cx="195.5" cy="77.5" r="8.5"/>
	<path fill="none" stroke="#000000" stroke-width="2" stroke-miterlimit="10" d="M195.5,103c4.9,0,9.4-1.6,13-4.4
		c-0.2-7-5.9-12.6-13-12.6s-12.8,5.6-13,12.6C186.1,101.4,190.6,103,195.5,103z"/>
</g>
<g>
	<circle fill="#4D4D4D" cx="28" cy="140" r="28"/>
	<rect x="24" y="119" fill="#FFFFFF" width="8" height="42"/>
	<rect x="24" y="119" transform="matrix(-1.836970e-16 1 -1 -1.836970e-16 168 112)" fill="#FFFFFF" width="8" height="42"/>
</g>
<g>
	<linearGradient id="SVGID_1_" gradientUnits="userSpaceOnUse" x1="67.7172" y1="152.6005" x2="95.1565" y2="126.9234">
		<stop  offset="0" style="stop-color:#FFFFFF"/>
		<stop  offset="1" style="stop-color:#E7E9E8"/>
	</linearGradient>
	<polygon fill="url(#SVGID_1_)" stroke="#CCCECD" stroke-miterlimit="10" points="57.1,124.3 90.3,118 111,150.3 69.7,162 	"/>
	<g>
		<g>
			
				<linearGradient id="SVGID_2_" gradientUnits="userSpaceOnUse" x1="68.2447" y1="165.7126" x2="95.684" y2="140.0355" gradientTransform="matrix(0.9946 0.1041 -0.1041 0.9946 15.863 -21.0825)">
				<stop  offset="0" style="stop-color:#FFFFFF"/>
				<stop  offset="1" style="stop-color:#E7E9E8"/>
			</linearGradient>
			<polygon fill="url(#SVGID_2_)" stroke="#CCCECD" stroke-miterlimit="10" points="58.9,121.6 92.6,118.8 109.8,153.1 67.5,160.4 
							"/>
		</g>
		
			<linearGradient id="SVGID_3_" gradientUnits="userSpaceOnUse" x1="80.7329" y1="173.094" x2="99.0377" y2="155.9647" gradientTransform="matrix(0.9946 0.1041 -0.1041 0.9946 15.863 -21.0825)">
			<stop  offset="0" style="stop-color:#FFFFFF"/>
			<stop  offset="1" style="stop-color:#E7E9E8"/>
		</linearGradient>
		<line fill="url(#SVGID_3_)" stroke="#CCCECD" stroke-miterlimit="10" x1="70.8" y1="155.3" x2="104.2" y2="149.5"/>
		
			<linearGradient id="SVGID_4_" gradientUnits="userSpaceOnUse" x1="79.9885" y1="171.2265" x2="98.0851" y2="154.292" gradientTransform="matrix(0.9946 0.1041 -0.1041 0.9946 15.863 -21.0825)">
			<stop  offset="0" style="stop-color:#FFFFFF"/>
			<stop  offset="1" style="stop-color:#E7E9E8"/>
		</linearGradient>
		<line fill="url(#SVGID_4_)" stroke="#CCCECD" stroke-miterlimit="10" x1="70.3" y1="153.3" x2="103.4" y2="147.8"/>
		
			<linearGradient id="SVGID_5_" gradientUnits="userSpaceOnUse" x1="79.244" y1="169.359" x2="97.1325" y2="152.6193" gradientTransform="matrix(0.9946 0.1041 -0.1041 0.9946 15.863 -21.0825)">
			<stop  offset="0" style="stop-color:#FFFFFF"/>
			<stop  offset="1" style="stop-color:#E7E9E8"/>
		</linearGradient>
		<line fill="url(#SVGID_5_)" stroke="#CCCECD" stroke-miterlimit="10" x1="69.8" y1="151.4" x2="102.6" y2="146"/>
		
			<linearGradient id="SVGID_6_" gradientUnits="userSpaceOnUse" x1="78.4996" y1="167.4915" x2="96.1799" y2="150.9466" gradientTransform="matrix(0.9946 0.1041 -0.1041 0.9946 15.863 -21.0825)">
			<stop  offset="0" style="stop-color:#FFFFFF"/>
			<stop  offset="1" style="stop-color:#E7E9E8"/>
		</linearGradient>
		<line fill="url(#SVGID_6_)" stroke="#CCCECD" stroke-miterlimit="10" x1="69.3" y1="149.4" x2="101.8" y2="144.3"/>
		
			<linearGradient id="SVGID_7_" gradientUnits="userSpaceOnUse" x1="77.7552" y1="165.624" x2="95.2273" y2="149.2739" gradientTransform="matrix(0.9946 0.1041 -0.1041 0.9946 15.863 -21.0825)">
			<stop  offset="0" style="stop-color:#FFFFFF"/>
			<stop  offset="1" style="stop-color:#E7E9E8"/>
		</linearGradient>
		<line fill="url(#SVGID_7_)" stroke="#CCCECD" stroke-miterlimit="10" x1="68.7" y1="147.4" x2="101.1" y2="142.5"/>
		
			<linearGradient id="SVGID_8_" gradientUnits="userSpaceOnUse" x1="76.2663" y1="161.889" x2="93.3222" y2="145.9285" gradientTransform="matrix(0.9946 0.1041 -0.1041 0.9946 15.863 -21.0825)">
			<stop  offset="0" style="stop-color:#FFFFFF"/>
			<stop  offset="1" style="stop-color:#E7E9E8"/>
		</linearGradient>
		<line fill="url(#SVGID_8_)" stroke="#CCCECD" stroke-miterlimit="10" x1="67.7" y1="143.5" x2="99.5" y2="139"/>
		
			<linearGradient id="SVGID_9_" gradientUnits="userSpaceOnUse" x1="75.5219" y1="160.0215" x2="92.3696" y2="144.2558" gradientTransform="matrix(0.9946 0.1041 -0.1041 0.9946 15.863 -21.0825)">
			<stop  offset="0" style="stop-color:#FFFFFF"/>
			<stop  offset="1" style="stop-color:#E7E9E8"/>
		</linearGradient>
		<line fill="url(#SVGID_9_)" stroke="#CCCECD" stroke-miterlimit="10" x1="67.2" y1="141.6" x2="98.7" y2="137.3"/>
		
			<linearGradient id="SVGID_10_" gradientUnits="userSpaceOnUse" x1="74.7775" y1="158.154" x2="91.417" y2="142.5831" gradientTransform="matrix(0.9946 0.1041 -0.1041 0.9946 15.863 -21.0825)">
			<stop  offset="0" style="stop-color:#FFFFFF"/>
			<stop  offset="1" style="stop-color:#E7E9E8"/>
		</linearGradient>
		<line fill="url(#SVGID_10_)" stroke="#CCCECD" stroke-miterlimit="10" x1="66.7" y1="139.6" x2="97.9" y2="135.5"/>
		
			<linearGradient id="SVGID_11_" gradientUnits="userSpaceOnUse" x1="74.0331" y1="156.2865" x2="90.4644" y2="140.9104" gradientTransform="matrix(0.9946 0.1041 -0.1041 0.9946 15.863 -21.0825)">
			<stop  offset="0" style="stop-color:#FFFFFF"/>
			<stop  offset="1" style="stop-color:#E7E9E8"/>
		</linearGradient>
		<line fill="url(#SVGID_11_)" stroke="#CCCECD" stroke-miterlimit="10" x1="66.1" y1="137.6" x2="97.1" y2="133.8"/>
		
			<linearGradient id="SVGID_12_" gradientUnits="userSpaceOnUse" x1="72.5442" y1="152.5515" x2="88.5592" y2="137.565" gradientTransform="matrix(0.9946 0.1041 -0.1041 0.9946 15.863 -21.0825)">
			<stop  offset="0" style="stop-color:#FFFFFF"/>
			<stop  offset="1" style="stop-color:#E7E9E8"/>
		</linearGradient>
		<line fill="url(#SVGID_12_)" stroke="#CCCECD" stroke-miterlimit="10" x1="65.1" y1="133.7" x2="95.5" y2="130.3"/>
		
			<linearGradient id="SVGID_13_" gradientUnits="userSpaceOnUse" x1="71.7998" y1="150.6841" x2="87.6067" y2="135.8923" gradientTransform="matrix(0.9946 0.1041 -0.1041 0.9946 15.863 -21.0825)">
			<stop  offset="0" style="stop-color:#FFFFFF"/>
			<stop  offset="1" style="stop-color:#E7E9E8"/>
		</linearGradient>
		<line fill="url(#SVGID_13_)" stroke="#CCCECD" stroke-miterlimit="10" x1="64.6" y1="131.8" x2="94.8" y2="128.5"/>
		
			<linearGradient id="SVGID_14_" gradientUnits="userSpaceOnUse" x1="71.0554" y1="148.8166" x2="86.6541" y2="134.2196" gradientTransform="matrix(0.9946 0.1041 -0.1041 0.9946 15.863 -21.0825)">
			<stop  offset="0" style="stop-color:#FFFFFF"/>
			<stop  offset="1" style="stop-color:#E7E9E8"/>
		</linearGradient>
		<line fill="url(#SVGID_14_)" stroke="#CCCECD" stroke-miterlimit="10" x1="64.1" y1="129.8" x2="94" y2="126.8"/>
		
			<linearGradient id="SVGID_15_" gradientUnits="userSpaceOnUse" x1="69.5665" y1="145.0816" x2="84.7489" y2="130.8742" gradientTransform="matrix(0.9946 0.1041 -0.1041 0.9946 15.863 -21.0825)">
			<stop  offset="0" style="stop-color:#FFFFFF"/>
			<stop  offset="1" style="stop-color:#E7E9E8"/>
		</linearGradient>
		<line fill="url(#SVGID_15_)" stroke="#CCCECD" stroke-miterlimit="10" x1="63" y1="125.9" x2="92.4" y2="123.3"/>
		
			<linearGradient id="SVGID_16_" gradientUnits="userSpaceOnUse" x1="68.8221" y1="143.2141" x2="83.7963" y2="129.2015" gradientTransform="matrix(0.9946 0.1041 -0.1041 0.9946 15.863 -21.0825)">
			<stop  offset="0" style="stop-color:#FFFFFF"/>
			<stop  offset="1" style="stop-color:#E7E9E8"/>
		</linearGradient>
		<line fill="url(#SVGID_16_)" stroke="#CCCECD" stroke-miterlimit="10" x1="62.5" y1="123.9" x2="91.6" y2="121.5"/>
	</g>
	<g>
		<polygon fill="#1F613A" points="57.5,145.8 71.9,138.9 77,135 70.6,136.2 56,143 		"/>
		<polygon fill="#4E715A" points="57.5,145.8 72.8,138.4 77,135 71.9,136.6 56,143 		"/>
		<polygon fill="#418864" points="57,144.8 77,135 72.8,138.4 57.5,145.8 		"/>
	</g>
</g>
</svg>
