<?xml version="1.0" encoding="utf-8"?>
<!-- Generator: Adobe Illustrator 23.0.6, SVG Export Plug-In . SVG Version: 6.00 Build 0)  -->
<svg version="1.1" id="Layer_1" xmlns="http://www.w3.org/2000/svg" xmlns:xlink="http://www.w3.org/1999/xlink" x="0px" y="0px"
	 width="237px" height="46px" viewBox="0 0 237 46" style="enable-background:new 0 0 237 46;" xml:space="preserve">
<style type="text/css">
	.st0{fill:#FFFFFF;}
	.st1{fill-rule:evenodd;clip-rule:evenodd;fill:#FEC601;}
</style>
<path class="st0" d="M22.3,32.9c-0.6,0-1.1,0.2-1.4,0.5c-0.4,0.3-0.8,0.8-1.5,1.4c-0.5,0.5-0.9,0.9-1.3,1.2s-0.8,0.6-1.3,0.8
	c-0.4,0.2-0.9,0.4-1.4,0.5s-1.1,0.1-1.7,0.1c-1.4,0-2.5-0.3-3.5-0.8s-1.8-1.3-2.4-2.2s-1.1-2-1.4-3.3C6,29.7,5.9,28.4,5.9,27
	s0.1-2.7,0.4-4c0.3-1.2,0.7-2.3,1.4-3.2c0.6-0.9,1.4-1.7,2.4-2.2s2.1-0.8,3.5-0.8c1.2,0,2.2,0.2,3,0.6c0.8,0.4,1.7,1.1,2.6,2.1
	c0.5,0.5,0.9,1,1.3,1.3s0.9,0.5,1.7,0.5s1.5-0.3,2-0.8s0.7-1.1,0.7-1.9c0-0.6-0.1-1.1-0.4-1.6s-0.7-1-1.1-1.5s-1-0.9-1.6-1.4
	c-0.6-0.4-1.3-0.8-2.1-1.2c-0.8-0.3-1.7-0.6-2.6-0.8s-2-0.3-3-0.3c-2.5,0-4.6,0.4-6.4,1.2s-3.2,2-4.4,3.4c-1.1,1.4-2,3-2.5,5
	C0.3,23.2,0,25.2,0,27.2c0,1.9,0.2,3.9,0.7,5.7c0.5,1.8,1.2,3.4,2.3,4.9s2.4,2.5,4.2,3.4c1.7,0.8,3.9,1.2,6.3,1.2s4.5-0.4,6.2-1.1
	c1.7-0.7,3-1.6,3.9-2.5c1.1-1.1,1.6-2.2,1.6-3.2c0-0.7-0.3-1.3-0.8-1.8C23.8,33.2,23.1,32.9,22.3,32.9z M42.3,20.4
	c-0.2-0.3-0.5-0.5-0.8-0.7c-0.4-0.2-0.9-0.3-1.5-0.3c-1.2,0-2.2,0.3-3.1,1c-0.9,0.6-1.6,1.4-2.1,2.3v-0.9c0-0.7-0.2-1.2-0.7-1.5
	s-1.2-0.4-2-0.4c-1.1,0-1.8,0.2-2.2,0.7c-0.4,0.5-0.6,1-0.6,1.6v17.5c0,1.6,0.9,2.5,2.8,2.5c1,0,1.7-0.2,2.2-0.6
	c0.4-0.4,0.7-1,0.7-1.9v-8.2c0-1.3,0.1-2.5,0.3-3.4s0.8-1.6,1.7-2.1c0.6-0.3,1.2-0.5,1.8-0.6c0.5-0.1,1.1-0.2,1.6-0.3
	c0.5-0.1,0.9-0.2,1.2-0.4c0.3-0.2,0.5-0.4,0.7-0.7c0.2-0.2,0.3-0.5,0.3-0.8s0.1-0.6,0.1-0.8c0-0.2,0-0.5-0.1-0.8
	C42.5,21,42.4,20.7,42.3,20.4z M54.6,19.4c-1.9,0-3.5,0.3-4.9,1s-2.5,1.5-3.4,2.6s-1.5,2.3-2,3.7c-0.4,1.4-0.6,2.8-0.6,4.4
	c0,1.9,0.3,3.6,0.8,5.1c0.5,1.4,1.3,2.6,2.2,3.5c1,0.9,2.2,1.6,3.6,2s3,0.7,4.7,0.7c1.2,0,2.4-0.1,3.6-0.4c1.2-0.3,2.3-0.7,3.2-1.3
	c0.7-0.4,1.1-0.8,1.4-1.2c0.3-0.4,0.4-0.8,0.4-1.3c0-0.7-0.2-1.3-0.7-1.9c-0.5-0.6-1-0.8-1.5-0.8s-0.9,0.1-1.3,0.3
	c-0.4,0.2-0.7,0.4-1.2,0.7c-0.4,0.2-1,0.5-1.6,0.8s-1.4,0.4-2.2,0.4c-3.4,0-5.3-1.7-5.5-5.2h12.2c0.9,0,1.6-0.2,2.1-0.5
	c0.5-0.3,0.7-0.9,0.7-1.7c0-3.5-0.9-6.3-2.7-8.2C60.2,20.3,57.8,19.4,54.6,19.4z M49.9,28.2c0.1-1.4,0.6-2.5,1.5-3.2
	s1.9-1.1,3.1-1.1c0.7,0,1.4,0.1,1.9,0.4s1,0.6,1.3,1s0.6,0.9,0.8,1.4s0.2,1,0.2,1.5C58.7,28.2,49.9,28.2,49.9,28.2z M86.4,12.2
	c-0.7,0-1.4,0.1-2,0.4c-0.6,0.3-0.9,0.9-0.9,1.8v8.2c-0.2-0.4-0.5-0.7-0.8-1.1s-0.7-0.7-1.2-1s-1.1-0.6-1.7-0.7
	c-0.7-0.2-1.4-0.3-2.2-0.3c-1.5,0-2.8,0.3-4,0.9s-2.2,1.4-3,2.4s-1.4,2.2-1.9,3.6c-0.4,1.4-0.6,2.9-0.6,4.6c0,1.7,0.2,3.2,0.6,4.7
	c0.4,1.4,1,2.6,1.8,3.6s1.8,1.8,3,2.4c1.2,0.6,2.5,0.9,4,0.9c1.1,0,2.1-0.1,2.8-0.4c0.8-0.3,1.4-0.6,1.9-1c0.6-0.4,1.1-0.9,1.4-1.5
	V40c0,0.8,0.2,1.4,0.7,1.7c0.4,0.4,1.2,0.5,2.2,0.5c1.8,0,2.7-0.8,2.7-2.3V14.5c0-0.7-0.2-1.3-0.7-1.7
	C88.2,12.4,87.5,12.2,86.4,12.2z M82.5,35.9c-0.8,1.2-2,1.8-3.6,1.8s-2.9-0.6-3.7-1.9C74.4,34.6,74,33,74,31.1
	c0-0.9,0.1-1.8,0.3-2.6c0.2-0.8,0.5-1.5,0.9-2.1s0.9-1.1,1.6-1.4c0.6-0.3,1.3-0.5,2.1-0.5s1.5,0.2,2.1,0.5s1.1,0.8,1.5,1.4
	s0.7,1.3,0.9,2.1c0.2,0.8,0.3,1.7,0.3,2.6C83.7,33.1,83.3,34.7,82.5,35.9z M98.2,19.8c-1.1,0-1.8,0.2-2.3,0.7s-0.7,1.1-0.7,1.9v17.3
	c0,1.5,1,2.2,3,2.2c0.9,0,1.6-0.2,2.1-0.5c0.5-0.4,0.7-1,0.7-1.8V22.2c0-0.8-0.2-1.4-0.7-1.8C99.8,20,99.1,19.8,98.2,19.8z
	 M100.4,12c-0.7-0.5-1.4-0.7-2.2-0.7c-1,0-1.8,0.3-2.4,0.9c-0.6,0.6-0.9,1.3-0.9,2.2s0.3,1.7,0.9,2.2c0.6,0.6,1.4,0.8,2.4,0.8
	s1.8-0.3,2.4-0.8c0.6-0.6,0.9-1.3,0.9-2.2C101.4,13.2,101.1,12.5,100.4,12z M119.1,37.4c-0.3-0.6-0.8-0.8-1.5-0.8
	c-0.3,0-0.5,0.1-0.7,0.2l-0.7,0.3c-0.2,0.1-0.5,0.2-0.7,0.3s-0.5,0.1-0.9,0.1c-0.5,0-0.9-0.1-1.1-0.4c-0.2-0.3-0.4-0.7-0.4-1.4V24.4
	h3.4c1,0,1.5-0.7,1.5-2.2c0-0.6-0.1-1-0.3-1.4c-0.2-0.4-0.6-0.6-1.2-0.6H113v-4.9c0-0.5-0.1-1-0.4-1.3s-0.8-0.5-1.5-0.5
	c-0.4,0-0.8,0-1.3,0.1c-0.4,0.1-0.8,0.3-1.2,0.5c-0.4,0.2-0.7,0.5-0.9,0.8c-0.2,0.3-0.4,0.8-0.4,1.3v4.1h-1.8c-0.5,0-0.8,0.2-1,0.6
	s-0.3,0.9-0.3,1.4s0.1,1,0.3,1.5c0.2,0.5,0.6,0.7,1,0.7h1.8v12c0,2.1,0.5,3.6,1.6,4.7s2.5,1.5,4.4,1.5c1.2,0,2.2-0.1,3-0.3
	s1.5-0.5,2.1-0.9c0.4-0.2,0.7-0.5,0.8-0.9c0.2-0.3,0.2-0.7,0.2-1.2C119.5,38.6,119.4,37.9,119.1,37.4z"/>
<path class="st1" d="M236.3,41.6c-0.4,0.4-1.1,0.5-2.1,0.5c-0.8,0-1.5-0.2-2-0.5s-0.7-0.9-0.7-1.8V39c-0.3,0.4-0.6,0.8-1,1.2
	s-0.8,0.7-1.4,1c-0.5,0.3-1.2,0.6-1.9,0.7c-0.7,0.2-1.6,0.3-2.5,0.3c-2.2,0-3.9-0.6-5.2-1.7c-1.3-1.2-1.9-2.7-1.9-4.7
	c0-1.1,0.2-2.1,0.6-2.8c0.4-0.8,0.9-1.4,1.5-2c0.7-0.5,1.4-0.9,2.3-1.2c0.9-0.3,1.8-0.5,2.8-0.7c1.1-0.2,2.1-0.3,3.2-0.5
	c1.1-0.1,2.2-0.2,3.5-0.3v-0.8c0-0.4-0.1-0.8-0.2-1.2c-0.1-0.4-0.3-0.8-0.6-1.1c-0.3-0.3-0.6-0.6-1.1-0.8c-0.5-0.2-1.1-0.3-1.7-0.3
	c-0.4,0-0.9,0-1.2,0.1c-0.4,0.1-0.7,0.1-1.1,0.3c-0.3,0.1-0.7,0.3-1.1,0.5c-0.4,0.2-0.8,0.5-1.3,0.8c-0.4,0.3-0.7,0.5-1,0.6
	c-0.3,0.2-0.7,0.3-1.2,0.3c-0.6,0-1.2-0.2-1.7-0.7s-0.7-1.1-0.7-1.8c0-0.5,0.2-1,0.6-1.5c0.4-0.5,1-1,1.8-1.5s1.8-0.8,2.9-1.1
	c1.2-0.3,2.5-0.5,4.1-0.5c3.2,0,5.5,0.6,6.9,1.9c1.4,1.2,2.1,3.2,2.1,5.9V40C236.9,40.7,236.7,41.3,236.3,41.6z M231.4,31.9
	c-1.1,0.1-2.1,0.2-3,0.4c-1,0.1-1.7,0.3-2.1,0.4c-1.3,0.3-2.2,0.7-2.6,1.2c-0.4,0.5-0.6,1-0.6,1.6c0,0.7,0.2,1.3,0.7,1.7
	c0.4,0.4,1.2,0.6,2.3,0.6c1.7,0,3.1-0.4,4-1.2s1.4-1.8,1.4-3.1L231.4,31.9L231.4,31.9z M204.7,28.2l2.2,0.4c2.5,0.5,4.4,1.2,5.5,2.2
	s1.7,2.6,1.7,4.7c0,2.3-0.8,4.2-2.5,5.3c-1.7,1.2-4,1.7-6.9,1.7c-1.7,0-3.2-0.2-4.5-0.6c-1.3-0.4-2.4-0.9-3.2-1.5
	c-0.4-0.2-0.6-0.5-0.8-0.9c-0.2-0.3-0.3-0.6-0.3-0.9c0-0.6,0.1-1.1,0.4-1.6c0.2-0.4,0.5-0.8,0.9-1c0.3-0.3,0.8-0.4,1.2-0.4
	s0.8,0.1,1.2,0.4c0.4,0.3,0.8,0.5,1.3,0.8s1,0.6,1.7,0.8c0.6,0.2,1.4,0.4,2.4,0.4c1.2,0,2.1-0.2,2.6-0.6c0.5-0.4,0.8-0.9,0.8-1.6
	c0-0.5-0.2-1-0.6-1.4c-0.4-0.4-1.1-0.7-2.3-0.9L203,33c-1-0.2-2-0.4-2.8-0.7s-1.6-0.7-2.2-1.2c-0.6-0.5-1.1-1.1-1.4-1.9
	c-0.3-0.7-0.5-1.6-0.5-2.7s0.2-2.1,0.7-3c0.4-0.9,1.1-1.6,1.9-2.2c0.8-0.6,1.8-1,2.9-1.4c1.1-0.3,2.4-0.5,3.7-0.5
	c1.9,0,3.5,0.2,4.7,0.7s2.1,0.9,2.7,1.4c0.4,0.3,0.6,0.6,0.7,0.9c0.1,0.3,0.2,0.6,0.2,0.9c0,0.7-0.2,1.2-0.5,1.7
	c-0.2,0.3-0.5,0.5-0.7,0.6c-0.2,0.2-0.5,0.2-0.9,0.2c-0.3,0-0.6-0.1-0.9-0.2c-0.3-0.1-0.6-0.3-0.8-0.4c-0.7-0.4-1.5-0.8-2.2-1.1
	c-0.7-0.3-1.6-0.4-2.7-0.4c-1.1,0-1.9,0.2-2.4,0.6s-0.8,0.8-0.8,1.4c0,0.5,0.2,0.9,0.6,1.3C202.6,27.6,203.4,27.9,204.7,28.2z
	 M188.5,42.2c-0.8,0-1.5-0.2-2-0.5s-0.7-0.9-0.7-1.8v-0.7c-0.3,0.4-0.6,0.8-1,1.2s-0.8,0.7-1.4,1c-0.5,0.3-1.2,0.6-1.9,0.7
	c-0.7,0.2-1.6,0.3-2.5,0.3c-2.2,0-3.9-0.6-5.2-1.7c-1.3-1.2-1.9-2.7-1.9-4.7c0-1.1,0.2-2.1,0.6-2.8c0.4-0.8,0.9-1.4,1.5-2
	c0.7-0.5,1.4-0.9,2.3-1.2c0.9-0.3,1.8-0.5,2.8-0.7c1.1-0.2,2.1-0.3,3.2-0.5c1.1-0.1,2.2-0.2,3.5-0.3v-0.8c0-0.4-0.1-0.8-0.2-1.2
	c-0.1-0.4-0.3-0.8-0.6-1.1c-0.3-0.3-0.6-0.6-1.1-0.8c-0.5-0.2-1.1-0.3-1.7-0.3c-0.4,0-0.9,0-1.2,0.1c-0.4,0.1-0.7,0.1-1.1,0.3
	c-0.3,0.1-0.7,0.3-1.1,0.5c-0.4,0.2-0.8,0.5-1.3,0.8c-0.4,0.3-0.7,0.5-1,0.6c-0.3,0.2-0.7,0.3-1.2,0.3c-0.6,0-1.2-0.2-1.7-0.7
	s-0.7-1.1-0.7-1.8c0-0.5,0.2-1,0.6-1.5c0.4-0.5,1-1,1.8-1.5s1.8-0.8,2.9-1.1c1.2-0.3,2.5-0.5,4.1-0.5c3.2,0,5.5,0.6,6.9,1.9
	c1.4,1.2,2.1,3.2,2.1,5.9v12.6c0,0.8-0.2,1.4-0.6,1.7C190.2,42,189.5,42.2,188.5,42.2z M185.8,31.9c-1.1,0.1-2.1,0.2-3,0.4
	c-1,0.1-1.7,0.3-2.1,0.4c-1.3,0.3-2.2,0.7-2.6,1.2c-0.4,0.5-0.6,1-0.6,1.6c0,0.7,0.2,1.3,0.7,1.7c0.4,0.4,1.2,0.6,2.3,0.6
	c1.7,0,3.1-0.4,4-1.2s1.4-1.8,1.4-3.1L185.8,31.9L185.8,31.9z M154,43.1l-4-5.8l2-2.9l3.7,5.4c1.6,2.3,3.9,2.7,5.6,1.5
	c1.7-1.2,2-3.4,0.4-5.8l-5.3-7.6l2.1-3l6.9,10c1.9,2.7,1.1,7.2-2.1,9.4C160.3,46.6,155.9,45.9,154,43.1z M147.2,37.2v-6.1l14.5-20.9
	c1.6-2.3,1.3-4.6-0.4-5.8s-3.9-0.8-5.6,1.5l-8.6,12.3v-5.9l6.7-9.7c1.9-2.7,6.3-3.5,9.5-1.2c3.1,2.3,4,6.7,2.1,9.4L147.2,37.2z
	 M137.9,45.7c-3.5,0-6.3-2.5-6.9-5.5c-0.1-0.5-0.2-1.1-0.2-1.9c0-0.2,0-1,0.1-1.7V6.7c0-3.4,3.1-6.5,7-6.5s7,3.1,7,6.5v32.5
	C144.9,42.6,141.8,45.7,137.9,45.7z M141.5,8.3c0-2.8-1.5-4.5-3.6-4.5c-2,0-3.7,1.6-3.7,4.5v29c0,2.8,1.7,4.8,3.7,4.8
	s3.6-1.8,3.6-4.8V8.3z"/>
</svg>
