<?xml version="1.0" encoding="utf-8"?>
<!-- Generator: Adobe Illustrator 23.0.6, SVG Export Plug-In . SVG Version: 6.00 Build 0)  -->
<svg version="1.1" id="Layer_1" xmlns="http://www.w3.org/2000/svg" xmlns:xlink="http://www.w3.org/1999/xlink" x="0px" y="0px"
	 width="169px" height="27px" viewBox="0 0 169 27" enable-background="new 0 0 169 27" xml:space="preserve">
<g>
	<path fill="#050505" d="M44,6.7l-3.5,13.4c-0.2,0.7-0.3,1.1-0.3,1.2c0,0.5,0.2,0.8,0.7,1v0.5h-4v-0.5c0.5-0.1,0.7-0.4,0.7-0.9
		c0-0.3-0.1-0.8-0.2-1.4L33.6,5.6c-0.2-0.7-0.3-1.1-0.5-1.3C33,4,32.7,3.8,32.4,3.6V3.2h3.7v0.5c-0.5,0.2-0.7,0.5-0.7,0.9
		c0,0.2,0.1,0.5,0.2,1l3.6,13.9l3.6-13.9c0.1-0.5,0.2-0.8,0.2-0.9c0-0.5-0.2-0.8-0.7-1V3.2h3.8v0.5c-0.5,0.2-0.7,0.5-0.7,0.9
		c0,0.2,0.1,0.6,0.2,1l3.6,13.9l3.5-13.9c0.1-0.3,0.1-0.6,0.1-0.9c0-0.5-0.3-0.9-0.8-1.1V3.2h3.7v0.5c-0.4,0.1-0.6,0.3-0.8,0.6
		s-0.4,0.7-0.5,1.3l-3.8,14.8c-0.1,0.4-0.2,0.8-0.2,1c0,0.6,0.2,0.9,0.7,1v0.5h-3.9v-0.5c0.4-0.1,0.7-0.4,0.7-0.9
		c0-0.3-0.1-0.7-0.2-1.3L44,6.7z"/>
	<path fill="#050505" d="M60.1,13.6v7.3h8.8c0.4,0,0.6-0.1,0.8-0.2c0.1-0.2,0.3-0.5,0.3-0.9h0.4V24h-0.4c-0.1-0.4-0.2-0.7-0.3-0.9
		s-0.4-0.2-0.7-0.2H57.4v-0.5c0.3-0.1,0.5-0.3,0.7-0.5s0.2-0.5,0.2-1V5.1c0-0.5-0.1-0.8-0.2-1c-0.1-0.2-0.3-0.4-0.6-0.5V3.2h11.3
		c0.4,0,0.6-0.1,0.7-0.2s0.3-0.5,0.3-0.9h0.3v4.2h-0.3c-0.1-0.5-0.2-0.8-0.3-0.9c-0.1-0.1-0.4-0.2-0.7-0.2h-8.7v6.6h5.5
		c0.4,0,0.6-0.1,0.7-0.2s0.3-0.5,0.3-0.9H67v4.2h-0.3c-0.1-0.5-0.2-0.8-0.3-0.9c-0.1-0.1-0.4-0.2-0.7-0.2H60.1z"/>
	<path fill="#050505" d="M84.6,12.5c1.7,0.9,2.5,2.5,2.5,4.8c0,1.7-0.4,3-1.3,4c-0.5,0.6-1,0.9-1.6,1.2c-0.6,0.2-1.4,0.3-2.5,0.3
		h-8.8v-0.5c0.3-0.1,0.5-0.3,0.6-0.5c0.1-0.2,0.2-0.5,0.2-1V5.1c0-0.5-0.1-0.8-0.2-1c-0.1-0.2-0.3-0.4-0.6-0.5V3.2h8.5
		c0.9,0,1.6,0.1,2.2,0.2s1,0.4,1.4,0.8c0.5,0.4,0.9,1,1.2,1.8c0.3,0.8,0.4,1.6,0.4,2.4C86.6,10.2,85.9,11.6,84.6,12.5z M75.5,11.6
		h5.4c0.9,0,1.5,0,1.9-0.1s0.8-0.3,1.1-0.5c0.7-0.5,1-1.3,1-2.4c0-1.3-0.4-2.2-1.1-2.8c-0.3-0.3-0.7-0.4-1.1-0.5s-1-0.1-1.9-0.1
		h-5.2V11.6z M75.5,20.9h5.7c0.9,0,1.6,0,2-0.1s0.8-0.3,1.1-0.6c0.7-0.6,1-1.5,1-2.8c0-1.4-0.4-2.5-1.2-3.1
		c-0.3-0.3-0.7-0.5-1.2-0.6c-0.4-0.1-1.1-0.2-2-0.2h-5.5V20.9z"/>
	<path fill="#050505" d="M95.6,20l4.5-14.4c0.1-0.4,0.2-0.7,0.2-1c0-0.6-0.2-0.9-0.7-1V3.2h3.5v0.5c-0.4,0.1-0.6,0.4-0.8,0.6
		c-0.2,0.3-0.4,0.9-0.7,2l-4.3,13.7c-0.2,0.6-0.3,1.1-0.3,1.5c0,0.5,0.2,0.8,0.7,1v0.5h-4.4v-0.5c0.5-0.1,0.7-0.5,0.7-1
		c0-0.3-0.1-0.8-0.3-1.4L89.2,6.3c-0.3-1.1-0.6-1.7-0.8-2c-0.2-0.3-0.4-0.5-0.8-0.6V3.2h3.9v0.5c-0.5,0.1-0.7,0.4-0.7,0.9
		c0,0.3,0.1,0.6,0.2,1L95.6,20z"/>
	<path fill="#050505" d="M113.3,17.3h-7.4l-1.1,3.3c-0.1,0.4-0.2,0.7-0.2,0.9c0,0.4,0.2,0.7,0.7,0.8v0.5h-3.5v-0.5
		c0.3-0.1,0.6-0.3,0.8-0.6c0.2-0.3,0.4-0.8,0.7-1.6L108,6c0.3-0.8,0.4-1.3,0.4-1.6c0-0.4-0.2-0.7-0.6-0.8V3.2h4.1v0.5
		c-0.4,0.1-0.6,0.4-0.6,0.8c0,0.2,0.2,0.8,0.5,1.9l4.5,13.6c0.3,0.9,0.6,1.5,0.8,1.9c0.2,0.3,0.5,0.5,0.8,0.6v0.5h-3.7v-0.5
		c0.4-0.1,0.6-0.3,0.6-0.6c0-0.1-0.1-0.5-0.3-1.2L113.3,17.3z M112.7,15.4l-3.1-9.7l-3.1,9.7H112.7z"/>
	<path fill="#050505" d="M124.3,14.2v6.7c0,0.5,0.1,0.8,0.2,1c0.1,0.2,0.3,0.4,0.7,0.5v0.5h-3.4v-0.5c0.3-0.1,0.5-0.3,0.6-0.5
		c0.1-0.2,0.2-0.5,0.2-1v-6.7l-4.4-7.9c-0.5-1-0.9-1.6-1.2-1.9c-0.3-0.3-0.6-0.5-0.9-0.7V3.2h4v0.5c-0.4,0.1-0.6,0.3-0.6,0.7
		c0,0.3,0.1,0.7,0.3,1.1l3.7,6.8l3.5-6.8c0.2-0.5,0.3-0.8,0.3-1.1c0-0.4-0.2-0.6-0.6-0.7V3.2h3.6v0.5c-0.4,0.2-0.7,0.5-1.1,0.9
		s-0.8,1.2-1.3,2.3L124.3,14.2z"/>
	<path fill="#050505" d="M132.2,19.4c0.4,0,0.7,0.2,1,0.6c0.3,0.4,0.4,0.8,0.4,1.4c0,0.5-0.1,1-0.4,1.3c-0.3,0.4-0.6,0.6-1,0.6
		c-0.4,0-0.7-0.2-1-0.6c-0.3-0.4-0.4-0.8-0.4-1.3c0-0.5,0.1-1,0.4-1.3C131.4,19.6,131.8,19.4,132.2,19.4z"/>
</g>
<g>
	<path fill="#F7D204" d="M143.8,20l4.5-14.4c0.1-0.4,0.2-0.7,0.2-1c0-0.6-0.2-0.9-0.7-1V3.2h3.5v0.5c-0.4,0.1-0.6,0.4-0.8,0.6
		c-0.2,0.3-0.4,0.9-0.7,2l-4.3,13.7c-0.2,0.6-0.3,1.1-0.3,1.5c0,0.5,0.2,0.8,0.7,1v0.5h-4.4v-0.5c0.5-0.1,0.7-0.5,0.7-1
		c0-0.3-0.1-0.8-0.3-1.4l-4.5-13.7c-0.3-1.1-0.6-1.7-0.8-2c-0.2-0.3-0.4-0.5-0.8-0.6V3.2h3.9v0.5c-0.5,0.1-0.7,0.4-0.7,0.9
		c0,0.3,0.1,0.6,0.2,1L143.8,20z"/>
	<path fill="#F7D204" d="M155.2,6.2v14.6c0,0.5,0.1,0.8,0.2,1c0.1,0.2,0.3,0.4,0.7,0.5v0.5h-3.1v-0.5c0.3-0.1,0.5-0.3,0.7-0.5
		c0.1-0.2,0.2-0.5,0.2-1V5.1c0-0.5-0.1-0.8-0.2-1c-0.1-0.2-0.3-0.4-0.6-0.5V3.2h4.6v0.5c-0.4,0.2-0.7,0.5-0.7,0.9
		c0,0.4,0.2,0.8,0.5,1.3l8.4,13V5.1c0-0.5-0.1-0.8-0.2-1s-0.3-0.4-0.6-0.5V3.2h3.1v0.5c-0.3,0.1-0.5,0.3-0.6,0.5
		c-0.1,0.2-0.2,0.5-0.2,1v15.7c0,0.5,0.1,0.8,0.2,1c0.1,0.2,0.3,0.4,0.7,0.5v0.5h-3.7v-0.5c0.4-0.2,0.7-0.4,0.7-0.7
		c0-0.2-0.2-0.7-0.6-1.3L155.2,6.2z"/>
</g>
<g>
	<g>
		<polygon fill="#2C97CD" points="10.5,2.8 8.2,5.9 8.9,8.7 10.5,8.4 12.9,6.5 13.4,3.6 		"/>
		<polygon fill="#247FAC" points="8.9,8.7 10.5,8.4 8.9,5.4 8.2,6 		"/>
		<polygon fill="#37BCFF" points="10.5,2.8 10.4,3 9.8,4.4 12.6,6.8 12.9,6.5 13.4,3.6 		"/>
		<polygon fill="#FFFFFF" points="10.6,2.9 10,4.3 10.8,3.7 12.7,3.6 		"/>
		<polygon fill="#FFFFFF" points="10.5,5.2 9.7,4.6 9,5.3 9.8,4.9 		"/>
	</g>
	<g>
		<polygon fill="#2C97CD" points="33.1,13.2 30.5,10.3 27.6,10.5 27.7,12.2 29.1,14.8 31.9,15.8 		"/>
		<polygon fill="#247FAC" points="27.6,10.5 27.7,12.1 30.9,11.1 30.4,10.3 		"/>
		<polygon fill="#37BCFF" points="33.1,13.2 33,13 31.7,12.2 28.9,14.5 29.1,14.8 31.9,15.8 		"/>
		<polygon fill="#FFFFFF" points="33,13.2 31.8,12.4 32.2,13.3 32,15.2 		"/>
		<polygon fill="#FFFFFF" points="30.8,12.7 31.5,12.1 30.9,11.2 31.2,12.1 		"/>
	</g>
	<g>
		<polygon fill="#FF8137" points="7.9,8.5 10,7.9 10.5,6.5 12.1,5.7 12.8,3.9 15.5,3.1 18.4,1.8 20.3,1.5 21.4,2.6 22.7,2.1 
			24.6,3.4 25.4,4.8 27.3,5.2 28.5,7.1 27,7.7 26.5,9.5 28.1,9.8 29.8,11.6 28.8,12.3 29.1,13.5 29.8,13.4 31,13.9 32.6,15.7 
			32.2,17.4 30.1,17.4 31.7,19.3 33,18.9 33.7,20.3 35.1,21.8 34.1,23.2 29.7,22.9 29.7,24.2 27.3,25.3 26.4,24.7 22.6,24.1 
			21,25.8 16.9,24.8 15.1,25.8 13.3,25.5 13.2,24.7 11.7,24.2 9.1,25 7.3,24.8 6.2,23.2 1.1,23 0.6,21.5 0.6,20 2.9,18.9 1.6,18 
			2.5,15.6 4.4,16.8 5.8,15.4 4.8,14.9 4.8,13.5 6.3,13 6.8,11.7 6.7,10.2 		"/>
		<polygon fill="#FFAF36" points="33.7,20.3 33,18.9 31.7,19.3 30.1,17.4 32.2,17.4 32.6,15.7 31,13.9 29.8,13.4 29.1,13.5 
			28.8,12.3 29.8,11.6 28.1,9.8 26.5,9.5 27,7.7 28.5,7.1 27.3,5.2 25.4,4.8 24.6,3.4 22.7,2.1 21.4,2.6 20.3,1.5 18.4,1.8 
			15.5,3.1 12.8,3.9 12.1,5.7 10.5,6.5 10,7.9 8.1,8.5 8.1,11.8 11.4,11.5 11.3,9.2 13.1,9.3 14.2,12 12.9,13.3 14.1,15.3 
			15.7,14.6 13.6,18 10.4,17.2 12.6,22.2 12.2,22.7 13.7,23.7 13.2,24.7 13.2,24.7 13.3,25.5 15.1,25.8 16.9,24.8 21,25.8 
			22.6,24.1 26.4,24.7 27.3,25.3 29.7,24.2 29.7,22.9 34.1,23.2 35.1,21.8 		"/>
		<polygon fill="#FFDF36" points="23.4,23.4 27.3,20.4 30.2,23 34.1,23.2 35.1,21.8 33.7,20.3 33,18.9 31.7,19.3 30.1,17.4 
			32.2,17.4 32.6,15.7 31,13.9 29.8,13.4 29.1,13.5 28.8,12.3 29.8,11.6 28.1,9.8 26.5,9.5 27,7.7 28.5,7.1 27.3,5.2 25.4,4.8 
			24.6,3.4 22.7,2.1 21.4,2.6 20.3,1.5 18.4,1.8 17.8,2.1 18.8,4.7 17.9,6.9 15.5,9.3 17,10.6 15.7,12.8 20.5,12.4 21.6,16.2 
			17.4,15 15.6,18.1 17.1,19.6 23.2,17.9 23.7,20 20.5,20.8 		"/>
		<polygon fill="#FFDF36" points="29.7,24.2 29.7,23.3 27.2,24 27.4,25.3 		"/>
		<polygon fill="#FFDF36" points="21.1,25.7 17.7,21 14.8,22.1 15.9,23.8 14.7,24.3 14.8,25.7 15.1,25.8 16.9,24.8 21,25.8 		"/>
		<polygon fill="#FFAF36" points="20.3,7.9 23.8,10.3 21.7,8.3 23.3,7.7 23.1,5.8 25,5 24.5,6.7 26.8,6.8 26.1,9.1 24.9,11.7 
			24.5,13.3 27.8,13.5 28.5,11.2 29.9,15.7 26.5,16.1 27.3,17.9 29.9,18.9 29.8,20.4 27,18.9 24.5,18.7 23.1,15.6 25.4,16.9 
			25.6,15.1 27.9,14.5 25.9,13.8 23.1,15 20.7,11.4 23.2,11.3 18.7,9 		"/>
	</g>
	<g>
		<polygon fill="#FD585E" points="23.4,7.7 25.6,9.1 25.7,11.8 23,13 20.5,11.4 20.9,8.6 		"/>
		<polygon fill="#FF908F" points="21.8,8.8 21.7,10.3 23.1,11.2 24.7,10.6 24.9,9 23.3,8.1 		"/>
		<polygon fill="#FFFFFF" points="22.2,8.8 23.4,8.3 24.8,9.1 24.7,10.5 23.6,10.9 23.6,9.1 		"/>
		<polygon fill="#D14949" points="23.1,11.4 23,13 23,13 25.7,11.8 25.7,11.8 24.8,10.7 		"/>
		<polygon fill="#A33939" points="23,13 23.1,11.4 21.6,10.5 20.5,11.4 		"/>
		<polygon fill="#D14949" points="20.5,11.4 21.6,10.5 21.7,8.8 20.9,8.6 20.5,11.4 		"/>
	</g>
	<g>
		<polygon fill="#FD585E" points="17.8,14.8 18.5,15.3 18.6,16.2 17.7,16.6 16.8,16 17,15.1 		"/>
		<polygon fill="#FF908F" points="17.3,15.2 17.3,15.7 17.7,16 18.2,15.8 18.3,15.2 17.8,14.9 		"/>
		<polygon fill="#FFFFFF" points="17.4,15.2 17.8,15 18.3,15.3 18.2,15.7 17.9,15.9 17.9,15.3 		"/>
		<polygon fill="#D14949" points="17.7,16 17.7,16.6 17.7,16.6 18.6,16.2 18.6,16.2 18.3,15.8 		"/>
		<polygon fill="#A33939" points="17.7,16.6 17.7,16 17.2,15.7 16.8,16 		"/>
		<polygon fill="#D14949" points="16.8,16 17.2,15.7 17.2,15.2 17,15.1 16.8,16 		"/>
	</g>
	<g>
		<polygon fill="#FD585E" points="29.7,19.3 30.6,19.9 30.6,21 29.5,21.5 28.5,20.9 28.7,19.7 		"/>
		<polygon fill="#FF908F" points="29,19.8 29,20.4 29.6,20.8 30.3,20.6 30.3,19.9 29.7,19.5 		"/>
		<polygon fill="#FFFFFF" points="29.2,19.8 29.7,19.6 30.3,19.9 30.2,20.5 29.8,20.7 29.8,19.9 		"/>
		<polygon fill="#D14949" points="29.6,20.9 29.5,21.5 29.5,21.5 30.6,21 30.6,21 30.3,20.6 		"/>
		<polygon fill="#A33939" points="29.5,21.5 29.6,20.9 28.9,20.5 28.5,20.9 		"/>
		<polygon fill="#D14949" points="28.5,20.9 28.9,20.5 29,19.8 28.7,19.7 28.5,20.9 		"/>
	</g>
	<g>
		<polygon fill="#58DBA8" points="15.2,0.7 19.3,0.5 21.7,3.4 20.6,7.3 16.4,7.8 13.4,4.4 		"/>
		<polygon fill="#65FEC5" points="19,1 16.5,1.3 15.7,3.5 17.2,5.5 19.8,5.2 20.8,2.9 		"/>
		<polygon fill="#FFFFFF" points="17,1.5 19.1,1.4 20.5,3 19.7,5 18,5 19,2.6 		"/>
		<polygon fill="#44AD85" points="16.5,1.3 15.2,0.7 13.4,4.4 15.5,3.6 		"/>
		<polygon fill="#2C6E53" points="15.5,3.6 13.4,4.4 16.4,7.8 17.2,5.6 		"/>
		<polygon fill="#44AD85" points="20.6,7.3 19.8,5.3 17.2,5.6 16.4,7.8 20.6,7.3 		"/>
	</g>
	<g>
		<polygon fill="#58DBA8" points="22.6,16.3 24.5,16.2 25.6,17.6 25.1,19.4 23.1,19.7 21.7,18.1 		"/>
		<polygon fill="#65FEC5" points="24.4,16.4 23.2,16.6 22.8,17.6 23.5,18.6 24.7,18.4 25.2,17.4 		"/>
		<polygon fill="#FFFFFF" points="23.4,16.7 24.4,16.6 25.1,17.4 24.7,18.4 23.9,18.3 24.3,17.2 		"/>
		<polygon fill="#44AD85" points="23.2,16.6 22.6,16.3 21.7,18.1 22.7,17.7 		"/>
		<polygon fill="#2C6E53" points="22.7,17.7 21.7,18.1 23.1,19.7 23.5,18.6 		"/>
		<polygon fill="#44AD85" points="25.1,19.4 24.7,18.5 23.5,18.6 23.1,19.7 25.1,19.4 		"/>
	</g>
	<g>
		<polygon fill="#58DBA8" points="11.4,19.6 13,19.6 13.9,20.7 13.5,22.2 11.9,22.4 10.8,21.1 		"/>
		<polygon fill="#65FEC5" points="12.9,19.8 11.9,19.9 11.6,20.7 12.2,21.5 13.2,21.4 13.6,20.5 		"/>
		<polygon fill="#FFFFFF" points="12.1,20 12.9,19.9 13.5,20.5 13.2,21.3 12.5,21.3 12.9,20.4 		"/>
		<polygon fill="#44AD85" points="11.9,19.9 11.4,19.6 10.8,21.1 11.6,20.8 		"/>
		<polygon fill="#2C6E53" points="11.6,20.8 10.8,21.1 11.9,22.4 12.2,21.5 		"/>
		<polygon fill="#44AD85" points="13.5,22.2 13.2,21.4 12.2,21.5 11.9,22.4 13.5,22.2 		"/>
	</g>
	<g>
		<polygon fill="#FFD946" points="9.6,11.7 12.7,12.1 13.9,14.8 12,17 9.4,16.4 8.3,14 		"/>
		<polygon fill="#F9FF47" points="11.4,16.2 12.3,15 11.6,13.5 9.9,13.1 9,14.6 9.7,16 		"/>
		<polygon fill="#FE8246" points="9.7,16.1 8.8,14.5 9.9,13.1 9.6,11.7 8.3,14 9.4,16.4 12,17 11.5,16.3 		"/>
		<polygon fill="#F9FF47" points="11.7,13.4 12.5,15 13.9,14.8 12.7,12.1 		"/>
		<polygon fill="#FFFFFF" points="11.3,15.7 12,15.1 11.5,13.7 10,13.6 9.2,14.6 10.6,14.1 		"/>
	</g>
</g>
</svg>
