<?xml version="1.0" encoding="utf-8"?>
<svg version="1.1" id="sing-in-icon" xmlns="http://www.w3.org/2000/svg" xmlns:xlink="http://www.w3.org/1999/xlink" x="0px" y="0px"
	width="24px" height="24px" viewBox="0 0 24 24" style="enable-background:new 0 0 24 24;" xml:space="preserve">
	<path style="fill:#171717;" d="M8.5,4C9.9,4,11,5.1,11,6.5S9.9,9,8.5,9S6,7.9,6,6.5S7.1,4,8.5,4 M8.5,2C6,2,4,4,4,6.5S6,11,8.5,11 S13,9,13,6.5S11,2,8.5,2L8.5,2z"/>
	<path style="fill:none;stroke:#171717;stroke-width:2;stroke-miterlimit:10;" d="M1,23v-4c0-3.9,2.8-5,6.2-5h2.6 c3.4,0,6.2,1.1,6.2,5v4"/>
	<polyline style="fill:none;stroke:#171717;stroke-width:2;stroke-miterlimit:10;" points="16,11 18,13 23,8 "/>
</svg>
